<svg width="14" height="14" viewBox="0 0 14 14" fill="none" xmlns="http://www.w3.org/2000/svg">
<path fill-rule="evenodd" clip-rule="evenodd" d="M2.91665 2.77087C2.8361 2.77087 2.77081 2.83617 2.77081 2.91671V5.25004C2.77081 5.33058 2.8361 5.39587 2.91665 5.39587H5.24998C5.33052 5.39587 5.39581 5.33058 5.39581 5.25004V2.91671C5.39581 2.83617 5.33052 2.77087 5.24998 2.77087H2.91665ZM1.89581 2.91671C1.89581 2.35292 2.35286 1.89587 2.91665 1.89587H5.24998C5.81377 1.89587 6.27081 2.35292 6.27081 2.91671V5.25004C6.27081 5.81383 5.81377 6.27087 5.24998 6.27087H2.91665C2.35286 6.27087 1.89581 5.81383 1.89581 5.25004V2.91671Z" fill="white"/>
<path fill-rule="evenodd" clip-rule="evenodd" d="M8.74998 2.77087C8.66944 2.77087 8.60415 2.83617 8.60415 2.91671V5.25004C8.60415 5.33058 8.66944 5.39587 8.74998 5.39587H11.0833C11.1639 5.39587 11.2291 5.33058 11.2291 5.25004V2.91671C11.2291 2.83617 11.1639 2.77087 11.0833 2.77087H8.74998ZM7.72915 2.91671C7.72915 2.35292 8.18619 1.89587 8.74998 1.89587H11.0833C11.6471 1.89587 12.1041 2.35292 12.1041 2.91671V5.25004C12.1041 5.81383 11.6471 6.27087 11.0833 6.27087H8.74998C8.18619 6.27087 7.72915 5.81383 7.72915 5.25004V2.91671Z" fill="white"/>
<path fill-rule="evenodd" clip-rule="evenodd" d="M2.91665 8.60421C2.8361 8.60421 2.77081 8.6695 2.77081 8.75004V11.0834C2.77081 11.1639 2.8361 11.2292 2.91665 11.2292H5.24998C5.33052 11.2292 5.39581 11.1639 5.39581 11.0834V8.75004C5.39581 8.6695 5.33052 8.60421 5.24998 8.60421H2.91665ZM1.89581 8.75004C1.89581 8.18625 2.35286 7.72921 2.91665 7.72921H5.24998C5.81377 7.72921 6.27081 8.18625 6.27081 8.75004V11.0834C6.27081 11.6472 5.81377 12.1042 5.24998 12.1042H2.91665C2.35286 12.1042 1.89581 11.6472 1.89581 11.0834V8.75004Z" fill="white"/>
<path fill-rule="evenodd" clip-rule="evenodd" d="M8.74998 8.60421C8.66944 8.60421 8.60415 8.6695 8.60415 8.75004V11.0834C8.60415 11.1639 8.66944 11.2292 8.74998 11.2292H11.0833C11.1639 11.2292 11.2291 11.1639 11.2291 11.0834V8.75004C11.2291 8.6695 11.1639 8.60421 11.0833 8.60421H8.74998ZM7.72915 8.75004C7.72915 8.18625 8.18619 7.72921 8.74998 7.72921H11.0833C11.6471 7.72921 12.1041 8.18625 12.1041 8.75004V11.0834C12.1041 11.6472 11.6471 12.1042 11.0833 12.1042H8.74998C8.18619 12.1042 7.72915 11.6472 7.72915 11.0834V8.75004Z" fill="white"/>
</svg>
