<svg width="14" height="14" viewBox="0 0 14 14" fill="none" xmlns="http://www.w3.org/2000/svg">
<path fill-rule="evenodd" clip-rule="evenodd" d="M3.49998 2.77087C3.09727 2.77087 2.77081 3.09733 2.77081 3.50004V4.66671C2.77081 5.06942 3.09727 5.39587 3.49998 5.39587H10.5C10.9027 5.39587 11.2291 5.06942 11.2291 4.66671V3.50004C11.2291 3.09733 10.9027 2.77087 10.5 2.77087H3.49998ZM1.89581 3.50004C1.89581 2.61408 2.61402 1.89587 3.49998 1.89587H10.5C11.3859 1.89587 12.1041 2.61408 12.1041 3.50004V4.66671C12.1041 5.55266 11.3859 6.27087 10.5 6.27087H3.49998C2.61402 6.27087 1.89581 5.55266 1.89581 4.66671V3.50004Z" fill="#A0AEC0"/>
<path fill-rule="evenodd" clip-rule="evenodd" d="M3.49998 8.60421C3.09727 8.60421 2.77081 8.93067 2.77081 9.33337V10.5C2.77081 10.9027 3.09727 11.2292 3.49998 11.2292H10.5C10.9027 11.2292 11.2291 10.9027 11.2291 10.5V9.33337C11.2291 8.93067 10.9027 8.60421 10.5 8.60421H3.49998ZM1.89581 9.33337C1.89581 8.44742 2.61402 7.72921 3.49998 7.72921H10.5C11.3859 7.72921 12.1041 8.44742 12.1041 9.33337V10.5C12.1041 11.386 11.3859 12.1042 10.5 12.1042H3.49998C2.61402 12.1042 1.89581 11.386 1.89581 10.5V9.33337Z" fill="#A0AEC0"/>
</svg>
